<svg width="123" height="40" viewBox="0 0 123 40" fill="none" xmlns="http://www.w3.org/2000/svg">
<path d="M-0.000183105 19.9997C-0.000183105 13.7863 -0.000183105 10.6663 1.01372 8.233C1.68418 6.61421 2.66728 5.14334 3.90683 3.90449C5.14638 2.66564 6.61806 1.68309 8.23775 1.013C10.6725 -0.000331879 13.7942 -0.000331879 20.011 -0.000331879C26.2278 -0.000331879 29.3496 -0.000331879 31.7843 1.013C33.404 1.68309 34.8757 2.66564 36.1152 3.90449C37.3547 5.14334 38.3379 6.61421 39.0083 8.233C40.0222 10.6663 40.0222 13.7863 40.0222 19.9997C40.0222 26.213 40.0222 29.333 39.0083 31.7663C38.3379 33.3851 37.3547 34.856 36.1152 36.0949C34.8757 37.3337 33.404 38.3163 31.7843 38.9863C29.3496 39.9997 26.2278 39.9997 20.011 39.9997C13.7942 39.9997 10.6725 39.9997 8.23775 38.9863C6.61806 38.3163 5.14638 37.3337 3.90683 36.0949C2.66728 34.856 1.68418 33.3851 1.01372 31.7663C-0.000183105 29.333 -0.000183105 26.213 -0.000183105 19.9997Z" fill="white"/>
<path d="M51.8417 19.333L47.9061 14.1664V19.333H45.0579V7.63303H47.9061V12.7664L51.8083 7.63303H55.1435L50.6077 13.3664L55.2769 19.3664L51.8417 19.333Z" fill="white"/>
<path d="M63.3216 19.3332L60.8869 14.9198H60.2198V19.3332H57.3649V7.63315H62.1542C62.9643 7.60869 63.7687 7.77542 64.5022 8.11982C65.1168 8.40309 65.6292 8.86862 65.9697 9.45315C66.2962 10.0207 66.4643 10.6653 66.4567 11.3198C66.4666 12.0936 66.2152 12.848 65.7432 13.4613C65.2712 14.0746 64.606 14.511 63.8552 14.6998L66.5567 19.3665L63.3216 19.3332ZM60.2065 12.8998H61.9742C62.3982 12.9325 62.818 12.7958 63.1415 12.5198C63.2795 12.376 63.3862 12.2052 63.4551 12.0182C63.524 11.8313 63.5535 11.6321 63.5417 11.4332C63.5524 11.2404 63.5222 11.0475 63.4532 10.8672C63.3843 10.6868 63.278 10.523 63.1415 10.3865C62.9826 10.2474 62.7975 10.1415 62.597 10.0751C62.3965 10.0086 62.1847 9.98309 61.9742 9.99982H60.2065V12.8998Z" fill="white"/>
<path d="M71.753 9.9197V12.2864H75.569V14.4864H71.753V17.053H76.0423V19.333H68.8983V7.63303H76.0423V9.9197H71.753Z" fill="white"/>
<path d="M87.0074 7.63303V9.9197H83.9061V19.333H81.0574V9.9197H77.9561V7.63303H87.0074Z" fill="white"/>
<path d="M94.6469 19.4529C93.5842 19.4551 92.5389 19.1842 91.6116 18.6663C90.7069 18.16 89.9522 17.4241 89.4236 16.5329C88.8856 15.5893 88.6089 14.5191 88.6229 13.4329C88.6069 12.3507 88.8829 11.2842 89.4236 10.3463C89.9509 9.45374 90.7056 8.7174 91.6116 8.21294C92.5396 7.69914 93.5856 7.435 94.6469 7.44627C95.7016 7.4326 96.7416 7.69707 97.6616 8.21294C98.5689 8.7086 99.3196 9.44747 99.8296 10.3463C100.37 11.2842 100.646 12.3507 100.63 13.4329C100.644 14.5191 100.368 15.5893 99.8296 16.5329C99.3116 17.4259 98.5629 18.1629 97.6616 18.6663C96.7416 19.1848 95.7029 19.4559 94.6469 19.4529ZM94.6469 16.8529C95.0649 16.8701 95.4816 16.7955 95.8676 16.6342C96.2536 16.4729 96.5996 16.229 96.8809 15.9196C97.4682 15.2354 97.7709 14.3531 97.7282 13.4529C97.7769 12.5519 97.4736 11.6673 96.8809 10.9863C96.6002 10.6758 96.2549 10.4311 95.8682 10.2697C95.4822 10.1084 95.0649 10.0344 94.6469 10.0529C94.2249 10.0329 93.8042 10.1041 93.4129 10.2617C93.0209 10.4193 92.6682 10.6597 92.3789 10.9663C91.7922 11.6579 91.4942 12.5479 91.5449 13.4529C91.4969 14.3555 91.7956 15.2423 92.3789 15.9329C92.6682 16.2404 93.0209 16.4817 93.4122 16.6405C93.8036 16.7993 94.2249 16.8717 94.6469 16.8529Z" fill="white"/>
<path d="M107.119 19.4528C106.332 19.465 105.55 19.3223 104.818 19.0328C104.171 18.7785 103.606 18.352 103.184 17.7995C102.773 17.2257 102.551 16.5383 102.55 15.8328H105.585C105.605 16.2099 105.765 16.5662 106.032 16.8328C106.314 17.0618 106.669 17.1803 107.033 17.1662C107.388 17.1871 107.74 17.0886 108.033 16.8862C108.155 16.7879 108.251 16.6624 108.315 16.52C108.379 16.3775 108.407 16.222 108.4 16.0662C108.404 15.9327 108.379 15.8 108.327 15.677C108.275 15.5539 108.198 15.4434 108.1 15.3528C107.896 15.1503 107.653 14.9915 107.386 14.8862C106.995 14.7202 106.595 14.58 106.185 14.4662C105.551 14.2788 104.931 14.0448 104.331 13.7662C103.845 13.5222 103.423 13.1684 103.097 12.7328C102.735 12.2118 102.555 11.5864 102.583 10.9528C102.561 10.4638 102.657 9.97656 102.862 9.53216C103.067 9.08783 103.377 8.6993 103.764 8.3995C104.684 7.79057 105.763 7.46583 106.866 7.46583C107.969 7.46583 109.048 7.79057 109.967 8.3995C110.36 8.7031 110.678 9.09203 110.897 9.5367C111.117 9.98143 111.233 10.4702 111.235 10.9662H108.153C108.153 10.7976 108.115 10.6312 108.042 10.479C107.969 10.3268 107.864 10.1926 107.733 10.0862C107.46 9.8551 107.11 9.73603 106.753 9.75283C106.449 9.7387 106.152 9.83863 105.919 10.0328C105.809 10.131 105.723 10.2528 105.667 10.3892C105.612 10.5254 105.589 10.6726 105.599 10.8195C105.598 11.001 105.647 11.1792 105.741 11.3345C105.835 11.4898 105.971 11.6161 106.132 11.6995C106.664 11.9773 107.223 12.2007 107.8 12.3662C108.427 12.5679 109.041 12.8129 109.634 13.0995C110.12 13.3344 110.543 13.6818 110.868 14.1128C111.231 14.611 111.415 15.2172 111.389 15.8328C111.393 16.4747 111.213 17.1044 110.868 17.6462C110.515 18.2118 110.005 18.6632 109.401 18.9462C108.69 19.291 107.909 19.4646 107.119 19.4528Z" fill="white"/>
<path d="M118.065 19.4529C117.278 19.4651 116.496 19.3224 115.764 19.0329C115.117 18.7787 114.552 18.3521 114.13 17.7996C113.719 17.2258 113.498 16.5384 113.496 15.8329H116.531C116.551 16.2116 116.713 16.5689 116.985 16.8329C117.266 17.0636 117.622 17.1823 117.985 17.1663C118.341 17.1852 118.692 17.0868 118.986 16.8863C119.106 16.787 119.202 16.6613 119.265 16.5191C119.329 16.3769 119.359 16.2219 119.353 16.0663C119.355 15.9331 119.329 15.8009 119.278 15.6781C119.226 15.5552 119.149 15.4445 119.053 15.3529C118.845 15.1518 118.601 14.9932 118.332 14.8863C117.941 14.7204 117.541 14.5801 117.131 14.4663C116.497 14.2789 115.877 14.0449 115.277 13.7663C114.797 13.5222 114.381 13.1681 114.063 12.7329C113.697 12.2141 113.513 11.5876 113.543 10.9529C113.52 10.4632 113.616 9.97521 113.823 9.53061C114.03 9.08601 114.341 8.69801 114.73 8.39961C115.621 7.74581 116.708 7.41641 117.812 7.46628C118.927 7.41361 120.025 7.74288 120.927 8.39961C121.319 8.70388 121.637 9.09281 121.858 9.53721C122.079 9.98168 122.196 10.4702 122.201 10.9663H119.113C119.111 10.7984 119.074 10.6328 119.003 10.4809C118.931 10.3289 118.828 10.1943 118.699 10.0863C118.423 9.85595 118.071 9.73708 117.712 9.75295C117.409 9.73881 117.111 9.83875 116.878 10.0329C116.769 10.1317 116.685 10.2539 116.631 10.3901C116.576 10.5265 116.554 10.6733 116.565 10.8196C116.563 11.0006 116.611 11.1787 116.704 11.334C116.797 11.4893 116.931 11.6159 117.091 11.6996C117.623 11.9774 118.182 12.2008 118.759 12.3663C119.387 12.568 120 12.813 120.593 13.0996C121.081 13.3362 121.505 13.6832 121.834 14.1129C122.193 14.6131 122.373 15.2184 122.348 15.8329C122.355 16.4742 122.177 17.1038 121.834 17.6463C121.479 18.2105 120.97 18.6615 120.367 18.9463C119.65 19.2925 118.861 19.4661 118.065 19.4529Z" fill="white"/>
<path d="M50.1946 25.4197V26.7064H48.0867V33.333H46.4992V26.7064H44.3847V25.4197H50.1946Z" fill="white"/>
<path d="M53.1629 26.7063V28.7063H55.8311V29.9663H53.1629V32.0597H56.1713V33.333H51.5753V25.413H56.1713V26.7063H53.1629Z" fill="white"/>
<path d="M57.4515 29.3663C57.4377 28.6363 57.6197 27.9158 57.9784 27.2797C58.3159 26.6755 58.8147 26.1769 59.4192 25.8397C60.0963 25.4731 60.8594 25.2947 61.6289 25.3228C62.3985 25.3509 63.1465 25.5847 63.795 25.9997C64.4566 26.4533 64.9473 27.1151 65.1891 27.8797H63.3681C63.2053 27.5255 62.9375 27.2299 62.601 27.033C62.2561 26.8363 61.8641 26.7373 61.467 26.7463C61.0305 26.74 60.6009 26.8555 60.2263 27.0797C59.8564 27.2966 59.5575 27.6162 59.3659 27.9997C59.1629 28.4309 59.0625 28.9032 59.0723 29.3797C59.066 29.8515 59.1663 30.3187 59.3659 30.7463C59.5577 31.1233 59.8481 31.4412 60.2063 31.6663C60.5833 31.8833 61.0121 31.9939 61.447 31.9863C61.8441 31.9954 62.236 31.8963 62.581 31.6997C62.9256 31.5007 63.2005 31.2005 63.3681 30.8397H65.1958C64.9561 31.6089 64.4653 32.2756 63.8017 32.733C63.1119 33.1874 62.2996 33.42 61.4737 33.3997C60.7587 33.4109 60.0531 33.2363 59.4259 32.893C58.8243 32.5519 58.3264 32.0543 57.9851 31.453C57.624 30.8175 57.4397 30.097 57.4515 29.3663Z" fill="white"/>
<path d="M73.3344 25.4197V33.333H71.7464V29.9997H68.3578V33.333H66.7704V25.4197H68.3578V28.6664H71.7464V25.4197H73.3344Z" fill="white"/>
<path d="M81.8988 33.333H80.3108L76.7088 27.9063V33.333H75.1215V25.413H76.7088L80.3041 30.853V25.413H81.8921L81.8988 33.333Z" fill="white"/>
<path d="M87.3813 33.4128C86.6673 33.4197 85.964 33.2405 85.3406 32.8928C84.728 32.5549 84.2186 32.0572 83.866 31.4528C83.496 30.8156 83.3066 30.0895 83.3193 29.3528C83.3093 28.6248 83.4986 27.9079 83.866 27.2795C84.2166 26.6718 84.726 26.1715 85.3406 25.8328C85.9653 25.4873 86.6673 25.306 87.3813 25.306C88.0953 25.306 88.798 25.4873 89.4226 25.8328C90.0333 26.172 90.5386 26.6725 90.8833 27.2795C91.2313 27.9067 91.404 28.6159 91.384 29.3328C91.3953 30.0685 91.2086 30.7938 90.8433 31.4328C90.4993 32.0439 89.994 32.5488 89.3826 32.8928C88.7706 33.2338 88.082 33.4128 87.3813 33.4128ZM87.3813 31.9995C87.8206 32.0109 88.254 31.9025 88.6353 31.6861C89.0033 31.4623 89.2993 31.1386 89.4893 30.7528C89.6993 30.3097 89.8 29.8228 89.7826 29.3328C89.792 28.8549 89.6866 28.3819 89.476 27.9528C89.2873 27.5696 88.9906 27.2498 88.622 27.0328C88.2406 26.8164 87.8073 26.7081 87.368 26.7195C86.9233 26.7091 86.4833 26.8172 86.094 27.0328C85.7213 27.2627 85.426 27.5995 85.2473 27.9995C85.0333 28.4275 84.928 28.9013 84.94 29.3795C84.928 29.8619 85.0333 30.3401 85.2473 30.7728C85.4346 31.1581 85.7286 31.4819 86.094 31.7061C86.4893 31.9171 86.934 32.0184 87.3813 31.9995Z" fill="white"/>
<path d="M94.413 32.073H97.0216V33.333H92.819V25.4197H94.413V32.073Z" fill="white"/>
<path d="M101.929 33.4128C101.215 33.4197 100.511 33.2405 99.888 32.8928C99.2754 32.5549 98.766 32.0572 98.414 31.4528C98.0434 30.8156 97.8547 30.0895 97.8667 29.3528C97.8567 28.6248 98.046 27.9079 98.414 27.2795C98.764 26.6718 99.2734 26.1715 99.888 25.8328C100.513 25.4873 101.215 25.306 101.929 25.306C102.643 25.306 103.345 25.4873 103.97 25.8328C104.581 26.172 105.086 26.6725 105.431 27.2795C105.799 27.9079 105.988 28.6248 105.978 29.3528C105.987 30.0891 105.799 30.8145 105.431 31.4528C105.084 32.0565 104.579 32.5543 103.97 32.8928C103.347 33.2405 102.643 33.4197 101.929 33.4128ZM101.929 31.9928C102.368 32.0042 102.801 31.8959 103.183 31.6795C103.551 31.4556 103.847 31.1319 104.037 30.7461C104.247 30.3123 104.353 29.8349 104.344 29.3528C104.355 28.8855 104.257 28.4221 104.057 27.9995C103.868 27.6163 103.571 27.2965 103.203 27.0795C102.821 26.8631 102.388 26.7547 101.949 26.7661C101.504 26.7557 101.065 26.8639 100.675 27.0795C100.301 27.2938 100 27.6139 99.808 27.9995C99.5947 28.4275 99.4887 28.9013 99.5014 29.3795C99.4887 29.8619 99.594 30.3401 99.808 30.7728C99.996 31.1581 100.289 31.4819 100.655 31.7061C101.046 31.9147 101.486 32.016 101.929 31.9995V31.9928Z" fill="white"/>
<path d="M112.895 27.7996C112.723 27.4823 112.464 27.2208 112.148 27.0463C111.806 26.8625 111.423 26.7705 111.034 26.7796C110.597 26.7715 110.166 26.8821 109.787 27.0996C109.424 27.3119 109.129 27.6245 108.94 27.9996C108.732 28.4129 108.627 28.8703 108.633 29.3329C108.621 29.8111 108.726 30.2849 108.94 30.7129C109.134 31.0933 109.435 31.4085 109.807 31.6196C110.202 31.8391 110.649 31.9496 111.101 31.9396C111.637 31.9615 112.164 31.794 112.589 31.4663C112.985 31.1203 113.253 30.6503 113.349 30.1329H110.627V28.9329H114.91V30.3196C114.809 30.8734 114.581 31.3961 114.243 31.8463C113.893 32.3228 113.435 32.7109 112.909 32.9796C112.34 33.2653 111.711 33.4094 111.074 33.3996C110.351 33.4117 109.636 33.2373 109 32.8929C108.393 32.5543 107.89 32.0563 107.545 31.4529C107.204 30.8104 107.025 30.0939 107.025 29.3663C107.025 28.6387 107.204 27.9221 107.545 27.2796C107.887 26.6734 108.39 26.1746 109 25.8396C109.682 25.4774 110.447 25.3014 111.219 25.3295C111.991 25.3576 112.742 25.5887 113.395 25.9996C114.039 26.4329 114.51 27.0764 114.729 27.8196L112.895 27.7996Z" fill="white"/>
<path d="M122.608 25.4197L119.94 30.5797V33.333H118.352V30.5797L115.684 25.4197H117.472L119.179 29.0397L120.867 25.4197H122.608Z" fill="white"/>
<path d="M17.0883 32.8992L3.33388 19.9992L17.0883 7.64585V32.8992Z" fill="#5D59EA"/>
<path d="M28.0557 11.2397L20.7516 4.66636V16.3464L28.0557 11.2397Z" fill="#5D59EA"/>
<path d="M20.2645 35.333L28.0555 29.493L20.2645 23.653V35.333Z" fill="#5D59EA"/>
<path d="M36.0201 19.9996L31.2841 15.6796V24.7196L36.0201 19.9996ZM29.95 25.0329V15.4529L23.2796 20.2396L29.95 25.0329Z" fill="#5D59EA"/>
<path d="M30.6162 26.326L22.0981 20.2394L30.6162 14.1594V26.326ZM24.3927 20.2394L29.2821 23.7394V16.746L24.3927 20.2394ZM30.6162 26.326V14.1594L36.9531 19.9994L30.6162 26.326ZM31.9503 17.206V23.106L35.0253 20.0394L31.9503 17.206Z" fill="#5D59EA"/>
</svg>
